<mxfile host="app.diagrams.net" modified="2020-12-14T17:36:01.815Z" agent="5.0 (Windows NT 10.0; Win64; x64) AppleWebKit/537.36 (KHTML, like Gecko) Chrome/87.0.4280.88 Safari/537.36" etag="fLE6aKtX7CpRshb6PVRt" version="13.11.0" type="github">
  <diagram name="Page-1" id="2c0d36ab-eaac-3732-788b-9136903baeff">
    <mxGraphModel dx="2370" dy="1270" grid="1" gridSize="10" guides="1" tooltips="1" connect="1" arrows="1" fold="1" page="1" pageScale="1.5" pageWidth="1169" pageHeight="827" background="#ffffff" math="0" shadow="0">
      <root>
        <mxCell id="0" />
        <mxCell id="1" parent="0" />
        <mxCell id="mp5Is_oHHsb4a5Pqf_yb-61" value="" style="rounded=1;whiteSpace=wrap;html=1;fillColor=#647687;fontColor=#ffffff;strokeColor=none;" vertex="1" parent="1">
          <mxGeometry x="760" y="180" width="630" height="170" as="geometry" />
        </mxCell>
        <mxCell id="cr9FANzja6UJMiHbJ5yW-260" value="" style="backgroundColour=00aaff;rounded=1;whiteSpace=wrap;html=1;fillColor=#f8cecc;strokeColor=none;arcSize=11;" parent="1" vertex="1">
          <mxGeometry x="740" y="383" width="670" height="507" as="geometry" />
        </mxCell>
        <mxCell id="2" value="AutoSavedResults" style="rounded=1;fillColor=#23445D;gradientColor=none;strokeColor=none;fontColor=#FFFFFF;fontStyle=1;fontFamily=Tahoma;fontSize=14" parent="1" vertex="1">
          <mxGeometry x="990" y="80" width="190" height="80" as="geometry" />
        </mxCell>
        <mxCell id="cr9FANzja6UJMiHbJ5yW-207" style="strokeWidth=2;edgeStyle=orthogonalEdgeStyle;rounded=0;orthogonalLoop=1;jettySize=auto;html=1;exitX=0.5;exitY=1;exitDx=0;exitDy=0;" parent="1" source="13" target="cr9FANzja6UJMiHbJ5yW-208" edge="1">
          <mxGeometry relative="1" as="geometry">
            <mxPoint x="820" y="480" as="targetPoint" />
            <Array as="points">
              <mxPoint x="1085" y="370" />
              <mxPoint x="1085" y="370" />
            </Array>
          </mxGeometry>
        </mxCell>
        <mxCell id="13" value="hardware description&#xa;eg.Â X11SPL-F__Intel(R)_Xeon(R)_Silver_4110_CPU_SAS3224_&#xa;CPU_SLOT4_X8(IN_X16)_CPU_SLOT6_X8(IN_X16)_RAM=64" style="rounded=1;fillColor=#23445D;gradientColor=none;strokeColor=none;fontColor=#FFFFFF;fontStyle=1;fontFamily=Tahoma;fontSize=14" parent="1" vertex="1">
          <mxGeometry x="850" y="240" width="470" height="80" as="geometry" />
        </mxCell>
        <mxCell id="61" value="" style="edgeStyle=elbowEdgeStyle;elbow=vertical;strokeWidth=2;rounded=0;exitX=0.5;exitY=1;exitDx=0;exitDy=0;entryX=0.5;entryY=0;entryDx=0;entryDy=0;" parent="1" source="2" target="13" edge="1">
          <mxGeometry x="-23" y="135.5" width="100" height="100" as="geometry">
            <mxPoint x="-23" y="235.5" as="sourcePoint" />
            <mxPoint x="662" y="330" as="targetPoint" />
            <Array as="points">
              <mxPoint x="1085" y="160" />
              <mxPoint x="852" y="320" />
            </Array>
          </mxGeometry>
        </mxCell>
        <mxCell id="cr9FANzja6UJMiHbJ5yW-214" style="strokeWidth=2;edgeStyle=orthogonalEdgeStyle;rounded=0;orthogonalLoop=1;jettySize=auto;html=1;exitX=0;exitY=0.5;exitDx=0;exitDy=0;entryX=1;entryY=0.5;entryDx=0;entryDy=0;" parent="1" source="sJ-iOtZQnBbiaRmRqmVX-129" target="cr9FANzja6UJMiHbJ5yW-129" edge="1">
          <mxGeometry relative="1" as="geometry">
            <Array as="points">
              <mxPoint x="990.06" y="780" />
              <mxPoint x="990.06" y="780" />
            </Array>
          </mxGeometry>
        </mxCell>
        <mxCell id="cr9FANzja6UJMiHbJ5yW-219" style="strokeWidth=2;edgeStyle=orthogonalEdgeStyle;rounded=0;orthogonalLoop=1;jettySize=auto;html=1;exitX=0;exitY=0.5;exitDx=0;exitDy=0;entryX=1;entryY=0.5;entryDx=0;entryDy=0;" parent="1" source="sJ-iOtZQnBbiaRmRqmVX-129" target="cr9FANzja6UJMiHbJ5yW-130" edge="1">
          <mxGeometry relative="1" as="geometry">
            <Array as="points">
              <mxPoint x="1038.06" y="780" />
              <mxPoint x="1038.06" y="725" />
            </Array>
          </mxGeometry>
        </mxCell>
        <mxCell id="cr9FANzja6UJMiHbJ5yW-220" style="strokeWidth=2;edgeStyle=orthogonalEdgeStyle;rounded=0;orthogonalLoop=1;jettySize=auto;html=1;exitX=0;exitY=0.5;exitDx=0;exitDy=0;entryX=1;entryY=0.5;entryDx=0;entryDy=0;" parent="1" source="sJ-iOtZQnBbiaRmRqmVX-129" target="cr9FANzja6UJMiHbJ5yW-131" edge="1">
          <mxGeometry relative="1" as="geometry">
            <Array as="points">
              <mxPoint x="1038.06" y="780" />
              <mxPoint x="1038.06" y="835" />
            </Array>
          </mxGeometry>
        </mxCell>
        <mxCell id="sJ-iOtZQnBbiaRmRqmVX-129" value="reads" style="rounded=1;fillColor=#23445D;gradientColor=none;strokeColor=none;fontColor=#FFFFFF;fontStyle=1;fontFamily=Tahoma;fontSize=14" parent="1" vertex="1">
          <mxGeometry x="1150.06" y="750" width="130" height="60" as="geometry" />
        </mxCell>
        <mxCell id="cr9FANzja6UJMiHbJ5yW-211" style="strokeWidth=2;edgeStyle=orthogonalEdgeStyle;rounded=0;orthogonalLoop=1;jettySize=auto;html=1;exitX=0;exitY=0.5;exitDx=0;exitDy=0;entryX=1;entryY=0.5;entryDx=0;entryDy=0;" parent="1" source="sJ-iOtZQnBbiaRmRqmVX-130" target="cr9FANzja6UJMiHbJ5yW-126" edge="1">
          <mxGeometry relative="1" as="geometry" />
        </mxCell>
        <mxCell id="cr9FANzja6UJMiHbJ5yW-212" style="strokeWidth=2;edgeStyle=orthogonalEdgeStyle;rounded=0;orthogonalLoop=1;jettySize=auto;html=1;exitX=0;exitY=0.5;exitDx=0;exitDy=0;entryX=1;entryY=0.5;entryDx=0;entryDy=0;" parent="1" source="sJ-iOtZQnBbiaRmRqmVX-130" target="cr9FANzja6UJMiHbJ5yW-127" edge="1">
          <mxGeometry relative="1" as="geometry">
            <mxPoint x="170.06000000000023" y="590" as="targetPoint" />
            <Array as="points">
              <mxPoint x="1040.06" y="600" />
              <mxPoint x="1040.06" y="545" />
            </Array>
          </mxGeometry>
        </mxCell>
        <mxCell id="cr9FANzja6UJMiHbJ5yW-216" style="strokeWidth=2;edgeStyle=orthogonalEdgeStyle;rounded=0;orthogonalLoop=1;jettySize=auto;html=1;exitX=0;exitY=0.5;exitDx=0;exitDy=0;entryX=1;entryY=0.5;entryDx=0;entryDy=0;" parent="1" source="sJ-iOtZQnBbiaRmRqmVX-130" target="cr9FANzja6UJMiHbJ5yW-128" edge="1">
          <mxGeometry relative="1" as="geometry">
            <mxPoint x="170.06" y="720.0000000000001" as="targetPoint" />
            <Array as="points">
              <mxPoint x="1040.06" y="600" />
              <mxPoint x="1040.06" y="655" />
            </Array>
          </mxGeometry>
        </mxCell>
        <mxCell id="sJ-iOtZQnBbiaRmRqmVX-130" value="writes" style="rounded=1;fillColor=#23445D;gradientColor=none;strokeColor=none;fontColor=#FFFFFF;fontStyle=1;fontFamily=Tahoma;fontSize=14" parent="1" vertex="1">
          <mxGeometry x="1140.06" y="570" width="130" height="60" as="geometry" />
        </mxCell>
        <mxCell id="cr9FANzja6UJMiHbJ5yW-126" value="graph coordinates" style="rounded=1;fillColor=#23445D;gradientColor=none;strokeColor=none;fontColor=#FFFFFF;fontStyle=1;fontFamily=Tahoma;fontSize=14" parent="1" vertex="1">
          <mxGeometry x="795.06" y="575" width="140" height="50" as="geometry" />
        </mxCell>
        <mxCell id="cr9FANzja6UJMiHbJ5yW-127" value="graphs" style="rounded=1;fillColor=#23445D;gradientColor=none;strokeColor=none;fontColor=#FFFFFF;fontStyle=1;fontFamily=Tahoma;fontSize=14" parent="1" vertex="1">
          <mxGeometry x="805.06" y="520" width="130" height="50" as="geometry" />
        </mxCell>
        <mxCell id="cr9FANzja6UJMiHbJ5yW-128" value="test_parameters" style="rounded=1;fillColor=#23445D;gradientColor=none;strokeColor=none;fontColor=#FFFFFF;fontStyle=1;fontFamily=Tahoma;fontSize=14" parent="1" vertex="1">
          <mxGeometry x="805.06" y="630" width="130" height="50" as="geometry" />
        </mxCell>
        <mxCell id="cr9FANzja6UJMiHbJ5yW-129" value="graph_coordinates" style="rounded=1;fillColor=#23445D;gradientColor=none;strokeColor=none;fontColor=#FFFFFF;fontStyle=1;fontFamily=Tahoma;fontSize=14" parent="1" vertex="1">
          <mxGeometry x="795.06" y="755" width="140" height="50" as="geometry" />
        </mxCell>
        <mxCell id="cr9FANzja6UJMiHbJ5yW-130" value="graphs" style="rounded=1;fillColor=#23445D;gradientColor=none;strokeColor=none;fontColor=#FFFFFF;fontStyle=1;fontFamily=Tahoma;fontSize=14" parent="1" vertex="1">
          <mxGeometry x="805.06" y="700" width="130" height="50" as="geometry" />
        </mxCell>
        <mxCell id="cr9FANzja6UJMiHbJ5yW-131" value="test_parameters" style="rounded=1;fillColor=#23445D;gradientColor=none;strokeColor=none;fontColor=#FFFFFF;fontStyle=1;fontFamily=Tahoma;fontSize=14" parent="1" vertex="1">
          <mxGeometry x="805.06" y="810" width="130" height="50" as="geometry" />
        </mxCell>
        <mxCell id="cr9FANzja6UJMiHbJ5yW-221" style="strokeWidth=2;edgeStyle=orthogonalEdgeStyle;rounded=0;orthogonalLoop=1;jettySize=auto;html=1;exitX=1;exitY=0.5;exitDx=0;exitDy=0;entryX=1;entryY=0.5;entryDx=0;entryDy=0;" parent="1" source="cr9FANzja6UJMiHbJ5yW-208" target="sJ-iOtZQnBbiaRmRqmVX-129" edge="1">
          <mxGeometry relative="1" as="geometry">
            <Array as="points">
              <mxPoint x="1320.06" y="480" />
              <mxPoint x="1320.06" y="780" />
            </Array>
          </mxGeometry>
        </mxCell>
        <mxCell id="cr9FANzja6UJMiHbJ5yW-222" style="strokeWidth=2;edgeStyle=orthogonalEdgeStyle;rounded=0;orthogonalLoop=1;jettySize=auto;html=1;exitX=1;exitY=0.5;exitDx=0;exitDy=0;entryX=1;entryY=0.5;entryDx=0;entryDy=0;" parent="1" source="cr9FANzja6UJMiHbJ5yW-208" target="sJ-iOtZQnBbiaRmRqmVX-130" edge="1">
          <mxGeometry relative="1" as="geometry">
            <Array as="points">
              <mxPoint x="1320.06" y="480" />
              <mxPoint x="1320.06" y="600" />
            </Array>
          </mxGeometry>
        </mxCell>
        <mxCell id="cr9FANzja6UJMiHbJ5yW-208" value="BenchMKresults_type_of_io" style="rounded=1;fillColor=#23445D;gradientColor=none;strokeColor=none;fontColor=#FFFFFF;fontStyle=1;fontFamily=Tahoma;fontSize=14" parent="1" vertex="1">
          <mxGeometry x="950.06" y="450" width="293" height="60" as="geometry" />
        </mxCell>
        <mxCell id="mp5Is_oHHsb4a5Pqf_yb-62" value="this part of the hierarchy is replicated for every unique combination of i/o type and drive order&lt;br style=&quot;font-size: 14px;&quot;&gt;" style="text;html=1;strokeColor=none;fillColor=none;align=center;verticalAlign=middle;whiteSpace=wrap;rounded=0;fontSize=14;" vertex="1" parent="1">
          <mxGeometry x="770" y="390" width="285" height="73" as="geometry" />
        </mxCell>
        <mxCell id="mp5Is_oHHsb4a5Pqf_yb-64" value="the number of directories on this level of the hierarchy is determined by the amount of different set ups of hardware that test were run on&amp;nbsp;" style="text;html=1;strokeColor=none;fillColor=none;align=center;verticalAlign=middle;whiteSpace=wrap;rounded=0;fontSize=14;fontColor=#FFFFFF;" vertex="1" parent="1">
          <mxGeometry x="770" y="180" width="310" height="60" as="geometry" />
        </mxCell>
      </root>
    </mxGraphModel>
  </diagram>
</mxfile>
